<svg id="Layer_1" data-name="Layer 1" xmlns="http://www.w3.org/2000/svg" viewBox="0 0 283.465 283.465"><defs><style>.cls-1{fill:#192b4c;}</style></defs><path class="cls-1" d="M159.514,115.508a15.329,15.329,0,0,0-9.483-2.884,15,15,0,0,0-9.6,3.032,18.348,18.348,0,0,0-5.766,8.235,33.512,33.512,0,0,0-1.933,11.743,34.006,34.006,0,0,0,1.962,11.89,18.81,18.81,0,0,0,5.826,8.383A14.75,14.75,0,0,0,150.031,159a14.906,14.906,0,0,0,9.423-2.974,18.324,18.324,0,0,0,5.828-8.234,34.243,34.243,0,0,0,1.992-12.158,33.888,33.888,0,0,0-1.963-12.1A17.584,17.584,0,0,0,159.514,115.508Z"/><path class="cls-1" d="M212.792,49.075H70.672A37.708,37.708,0,0,0,32.964,86.783v109.9A37.709,37.709,0,0,0,70.672,234.39h142.12A37.708,37.708,0,0,0,250.5,196.682V86.783A37.707,37.707,0,0,0,212.792,49.075ZM107.116,160.218a23.015,23.015,0,0,1-9.632,7.313,35.964,35.964,0,0,1-14.3,2.647A36.725,36.725,0,0,1,70.372,168.1a22.394,22.394,0,0,1-9.215-6.153,21,21,0,0,1-4.786-9.958l12.307-2.557a12.671,12.671,0,0,0,5.113,7.669,16.792,16.792,0,0,0,9.513,2.5q6.3,0,10.048-2.644t3.746-6.333a6.844,6.844,0,0,0-2.288-5.291,15.071,15.071,0,0,0-7.046-3.092l-11.178-2.556q-9.274-2.082-13.793-6.66A15.964,15.964,0,0,1,58.274,121.3,16.912,16.912,0,0,1,61.6,110.9a21.723,21.723,0,0,1,9.1-6.927,33.618,33.618,0,0,1,13.318-2.467,32.612,32.612,0,0,1,12.307,2.081,21.071,21.071,0,0,1,8.294,5.826,22.541,22.541,0,0,1,4.548,8.682l-11.712,2.556a14.411,14.411,0,0,0-4.341-6.154q-3.09-2.646-8.978-2.645a15.847,15.847,0,0,0-9.037,2.437,7.238,7.238,0,0,0-3.626,6.183,6.727,6.727,0,0,0,2.408,5.381q2.406,2.051,7.877,3.3l10.7,2.378q9.216,2.083,13.675,6.54a15.46,15.46,0,0,1,4.459,11.415A17.482,17.482,0,0,1,107.116,160.218Zm73,30.085H167.035V158.4h-.713a31.489,31.489,0,0,1-3.329,4.877,19.344,19.344,0,0,1-6.006,4.785,20.582,20.582,0,0,1-9.809,2.051,25.64,25.64,0,0,1-14.389-4.131,27.594,27.594,0,0,1-9.87-11.832q-3.567-7.7-3.567-18.4,0-10.821,3.626-18.491a27.418,27.418,0,0,1,9.93-11.714,25.868,25.868,0,0,1,14.27-4.042,20.854,20.854,0,0,1,9.958,2.051,18.725,18.725,0,0,1,5.916,4.786,35.824,35.824,0,0,1,3.27,4.816h1.07v-10.82h12.724Zm46.978-62.041H193.068v-7.9l16.982-17.02q2.109-2.219,3.6-4A14.922,14.922,0,0,0,215.9,95.8a9.415,9.415,0,0,0,.769-3.831,7.718,7.718,0,0,0-.944-3.9,6.474,6.474,0,0,0-2.575-2.531,7.717,7.717,0,0,0-3.741-.884,7.306,7.306,0,0,0-3.789.953,6.374,6.374,0,0,0-2.5,2.721,9.4,9.4,0,0,0-.88,4.229h-9.657a17.532,17.532,0,0,1,2.126-8.8,14.647,14.647,0,0,1,5.948-5.787,18.382,18.382,0,0,1,8.81-2.045,19.32,19.32,0,0,1,8.955,1.958,14.446,14.446,0,0,1,8.058,13.362,16.3,16.3,0,0,1-1.054,5.736,25.141,25.141,0,0,1-3.743,6.309,82.45,82.45,0,0,1-7.675,8.337l-6.875,7.278v.382h19.955Z"/></svg>